<?xml version="1.0"?>
<svg width="24" height="24" xmlns="http://www.w3.org/2000/svg" xmlns:svg="http://www.w3.org/2000/svg">
 <g class="layer">
  <title>Layer 1</title>
  <path d="m9.76,19.82l-3.01,0l0,-5.88q0,-2.38 -1.74,-2.38q-0.86,0 -1.43,0.66q-0.56,0.66 -0.56,1.72l0,5.88l-3.02,0l0,-15.29l3.02,0l0,6.51l0.03,0q1.19,-1.8 3.2,-1.8q3.51,0 3.51,4.24l0,6.34z" fill="#b300f9" id="svg_1"/>
  <path d="m13.07,11.45l0,2l-2,0l0,2l2,0l0,2l2,0l0,-2l2,0l0,-2l-2,0l0,-2l-2,0zm7,0l0,2l-2,0l0,2l2,0l0,2l2,0l0,-2l2,0l0,-2l-2,0l0,-2l-2,0z" fill="#b300f9" id="svg_2"/>
 </g>
</svg>